<svg width="24" height="24" viewBox="0 0 24 24" fill="none" xmlns="http://www.w3.org/2000/svg">
<path d="M16 10.0005H8C7.45 10.0005 7 10.4505 7 11.0005C7 11.5505 7.45 12.0005 8 12.0005H16C16.55 12.0005 17 11.5505 17 11.0005C17 10.4505 16.55 10.0005 16 10.0005ZM19 3.00049H18V2.00049C18 1.45049 17.55 1.00049 17 1.00049C16.45 1.00049 16 1.45049 16 2.00049V3.00049H8V2.00049C8 1.45049 7.55 1.00049 7 1.00049C6.45 1.00049 6 1.45049 6 2.00049V3.00049H5C3.89 3.00049 3 3.90049 3 5.00049V19.0005C3 20.1005 3.89 21.0005 5 21.0005H19C20.1 21.0005 21 20.1005 21 19.0005V5.00049C21 3.90049 20.1 3.00049 19 3.00049ZM18 19.0005H6C5.45 19.0005 5 18.5505 5 18.0005V8.00049H19V18.0005C19 18.5505 18.55 19.0005 18 19.0005ZM13 14.0005H8C7.45 14.0005 7 14.4505 7 15.0005C7 15.5505 7.45 16.0005 8 16.0005H13C13.55 16.0005 14 15.5505 14 15.0005C14 14.4505 13.55 14.0005 13 14.0005Z" fill="#7C8DA7"/>
</svg>
