<svg width="24" height="23" viewBox="0 0 24 23" fill="none" xmlns="http://www.w3.org/2000/svg">
<path d="M2.99976 1.38C2.99976 0.617763 3.64438 0 4.43976 0H14.9998L20.9998 4.82999V21.62C20.9998 22.3822 20.3552 23 19.5598 23H4.43976C3.64438 23 2.99976 22.3822 2.99976 21.62V1.38Z" fill="#02723B"/>
<path d="M15.0002 0V3.44999C15.0002 4.21223 15.6449 4.82999 16.4402 4.82999H21.0003" fill="#05522C"/>
<path d="M5.37057 11.2546H6.72844L7.47093 12.8078H7.50091L8.28843 11.2546H9.6088L8.21342 13.5414L9.7363 16.2367H8.37842L7.48592 14.3891H7.45594L6.58555 16.2367H5.25806L6.72844 13.5913L5.37057 11.2546Z" fill="white"/>
<path d="M10.4417 16.2366V11.2546H11.687V15.2955H13.9374L13.8095 16.2367H10.4417V16.2366Z" fill="white"/>
<path d="M16.4101 16.3587C15.4647 16.3587 14.7601 16.0428 14.3323 15.6399L14.9623 14.9719C15.3452 15.2953 15.8105 15.475 16.3655 15.475C16.8751 15.475 17.2202 15.2518 17.2202 14.8705C17.2202 14.5112 17.0027 14.3534 16.2826 14.137C15.0898 13.7777 14.6326 13.3248 14.6326 12.577C14.6326 11.6566 15.5173 11.1248 16.5976 11.1248C17.3859 11.1248 18.0001 11.3619 18.4505 11.7716L17.8652 12.4188C17.5127 12.1389 17.0998 12.002 16.6948 12.002C16.2298 12.002 15.9215 12.1676 15.9215 12.4835C15.9215 12.7998 16.1544 12.922 16.9494 13.166C17.9398 13.475 18.5173 13.8631 18.5173 14.7763C18.518 15.7114 17.7234 16.3587 16.4101 16.3587Z" fill="white"/>
</svg>
