<svg width="24" height="24" viewBox="0 0 24 24" fill="none" xmlns="http://www.w3.org/2000/svg">
<path d="M2.40039 3.59844C2.40039 3.28018 2.52682 2.97495 2.75186 2.74991C2.97691 2.52487 3.28213 2.39844 3.60039 2.39844H6.18399C6.46804 2.39857 6.74283 2.49945 6.95948 2.68315C7.17614 2.86684 7.32061 3.12144 7.36719 3.40164L8.25519 8.72364C8.29762 8.9771 8.25756 9.23749 8.14091 9.46647C8.02425 9.69546 7.83717 9.88095 7.60719 9.99564L5.74959 10.9232C6.41572 12.574 7.40779 14.0736 8.66652 15.3323C9.92525 16.591 11.4248 17.5831 13.0756 18.2492L14.0044 16.3916C14.119 16.1619 14.3043 15.975 14.5331 15.8583C14.7618 15.7417 15.0219 15.7015 15.2752 15.7436L20.5972 16.6316C20.8774 16.6782 21.132 16.8227 21.3157 17.0393C21.4994 17.256 21.6003 17.5308 21.6004 17.8148V20.3984C21.6004 20.7167 21.474 21.0219 21.2489 21.247C21.0239 21.472 20.7186 21.5984 20.4004 21.5984H18.0004C9.38439 21.5984 2.40039 14.6144 2.40039 5.99844V3.59844Z" fill="#414141"/>
<path d="M20.0487 3.95291C20.2737 4.17794 20.4 4.48311 20.4 4.80131C20.4 5.1195 20.2737 5.42467 20.0487 5.64971L18.4971 7.20131L20.0487 8.75291C20.2673 8.97923 20.3882 9.28235 20.3855 9.59699C20.3828 9.91162 20.2566 10.2126 20.0341 10.4351C19.8116 10.6576 19.5106 10.7838 19.196 10.7865C18.8813 10.7892 18.5782 10.6683 18.3519 10.4497L16.8003 8.89811L15.2487 10.4497C15.138 10.5643 15.0056 10.6557 14.8592 10.7186C14.7128 10.7815 14.5553 10.8146 14.396 10.816C14.2366 10.8174 14.0786 10.787 13.9311 10.7267C13.7837 10.6664 13.6497 10.5773 13.537 10.4646C13.4243 10.3519 13.3352 10.2179 13.2749 10.0704C13.2146 9.92297 13.1842 9.76496 13.1856 9.60562C13.187 9.44629 13.2201 9.28883 13.283 9.14242C13.3459 8.99602 13.4373 8.8636 13.5519 8.75291L15.1035 7.20131L13.5519 5.64971C13.3333 5.42338 13.2124 5.12026 13.2151 4.80562C13.2178 4.49099 13.344 4.19001 13.5665 3.96752C13.789 3.74503 14.09 3.61883 14.4046 3.6161C14.7192 3.61336 15.0224 3.73432 15.2487 3.95291L16.8003 5.50451L18.3519 3.95291C18.5769 3.72794 18.8821 3.60156 19.2003 3.60156C19.5185 3.60156 19.8237 3.72794 20.0487 3.95291Z" fill="#414141"/>
</svg>
