<svg width="32" height="32" viewBox="0 0 32 32" fill="none" xmlns="http://www.w3.org/2000/svg">
<path fill-rule="evenodd" clip-rule="evenodd" d="M22.2227 17.5071C24.0493 18.7471 25.3293 20.4271 25.3293 22.6671V26.6671H30.6627V22.6671C30.6627 19.7604 25.9027 18.0404 22.2227 17.5071Z" fill="#637798"/>
<path d="M11.9974 15.9987C14.9429 15.9987 17.3307 13.6109 17.3307 10.6654C17.3307 7.71985 14.9429 5.33203 11.9974 5.33203C9.05188 5.33203 6.66406 7.71985 6.66406 10.6654C6.66406 13.6109 9.05188 15.9987 11.9974 15.9987Z" fill="#637798"/>
<path fill-rule="evenodd" clip-rule="evenodd" d="M19.996 15.9987C22.9427 15.9987 25.3293 13.612 25.3293 10.6654C25.3293 7.7187 22.9427 5.33203 19.996 5.33203C19.3693 5.33203 18.7827 5.46536 18.2227 5.65203C19.3293 7.02536 19.996 8.77203 19.996 10.6654C19.996 12.5587 19.3293 14.3054 18.2227 15.6787C18.7827 15.8654 19.3693 15.9987 19.996 15.9987Z" fill="#637798"/>
<path fill-rule="evenodd" clip-rule="evenodd" d="M11.9987 17.332C8.4387 17.332 1.33203 19.1187 1.33203 22.6654V26.6654H22.6654V22.6654C22.6654 19.1187 15.5587 17.332 11.9987 17.332Z" fill="#637798"/>
</svg>
