<svg width="32" height="32" viewBox="0 0 32 32" fill="none" xmlns="http://www.w3.org/2000/svg">
<path d="M4 15.3333C4 16.4379 4.89543 17.3333 6 17.3333H12.6667C13.7712 17.3333 14.6667 16.4379 14.6667 15.3333V6C14.6667 4.89543 13.7712 4 12.6667 4H6C4.89543 4 4 4.89543 4 6V15.3333ZM4 26C4 27.1046 4.89543 28 6 28H12.6667C13.7712 28 14.6667 27.1046 14.6667 26V22C14.6667 20.8954 13.7712 20 12.6667 20H6C4.89543 20 4 20.8954 4 22V26ZM17.3333 26C17.3333 27.1046 18.2288 28 19.3333 28H26C27.1046 28 28 27.1046 28 26V16.6667C28 15.5621 27.1046 14.6667 26 14.6667H19.3333C18.2288 14.6667 17.3333 15.5621 17.3333 16.6667V26ZM19.3333 4C18.2288 4 17.3333 4.89543 17.3333 6V10C17.3333 11.1046 18.2288 12 19.3333 12H26C27.1046 12 28 11.1046 28 10V6C28 4.89543 27.1046 4 26 4H19.3333Z" fill="#637798"/>
</svg>
