<svg width="30" height="32" viewBox="0 0 30 32" fill="none" xmlns="http://www.w3.org/2000/svg">
<path d="M26.25 12.6667V16.6667C26.25 19.98 21.2125 22.6667 15 22.6667C8.7875 22.6667 3.75 19.98 3.75 16.6667V12.6667C3.75 15.98 8.7875 18.6667 15 18.6667C21.2125 18.6667 26.25 15.98 26.25 12.6667ZM3.75 19.3333C3.75 22.6467 8.7875 25.3333 15 25.3333C21.2125 25.3333 26.25 22.6467 26.25 19.3333V23.3333C26.25 26.6467 21.2125 29.3333 15 29.3333C8.7875 29.3333 3.75 26.6467 3.75 23.3333V19.3333ZM15 16C8.7875 16 3.75 13.3133 3.75 10C3.75 6.68667 8.7875 4 15 4C21.2125 4 26.25 6.68667 26.25 10C26.25 13.3133 21.2125 16 15 16Z" fill="#637798"/>
</svg>
