<svg width="32" height="32" viewBox="0 0 32 32" fill="none" xmlns="http://www.w3.org/2000/svg">
<path d="M25.5215 17.2535C25.5748 16.8535 25.6015 16.4402 25.6015 16.0002C25.6015 15.5735 25.5748 15.1469 25.5081 14.7469L28.2148 12.6402C28.4548 12.4535 28.5215 12.0935 28.3748 11.8269L25.8148 7.4002C25.6548 7.10686 25.3215 7.01353 25.0281 7.10686L21.8414 8.38686C21.1748 7.88019 20.4681 7.45353 19.6814 7.13353L19.2014 3.74686C19.1481 3.42686 18.8814 3.2002 18.5614 3.2002H13.4414C13.1214 3.2002 12.8681 3.42686 12.8148 3.74686L12.3348 7.13353C11.5481 7.45353 10.8281 7.89353 10.1748 8.38686L6.98811 7.10686C6.69478 7.00019 6.36145 7.10686 6.20145 7.4002L3.65478 11.8269C3.49478 12.1069 3.54811 12.4535 3.81478 12.6402L6.52145 14.7469C6.45478 15.1469 6.40145 15.5869 6.40145 16.0002C6.40145 16.4135 6.42811 16.8535 6.49478 17.2535L3.78811 19.3602C3.54811 19.5469 3.48145 19.9069 3.62812 20.1735L6.18811 24.6002C6.34811 24.8935 6.68145 24.9869 6.97478 24.8935L10.1614 23.6135C10.8281 24.1202 11.5348 24.5469 12.3214 24.8669L12.8014 28.2535C12.8681 28.5735 13.1214 28.8002 13.4414 28.8002H18.5614C18.8814 28.8002 19.1481 28.5735 19.1881 28.2535L19.6681 24.8669C20.4548 24.5469 21.1748 24.1202 21.8281 23.6135L25.0148 24.8935C25.3081 25.0002 25.6415 24.8935 25.8015 24.6002L28.3615 20.1735C28.5215 19.8802 28.4548 19.5469 28.2015 19.3602L25.5215 17.2535ZM16.0014 20.8002C13.3614 20.8002 11.2014 18.6402 11.2014 16.0002C11.2014 13.3602 13.3614 11.2002 16.0014 11.2002C18.6414 11.2002 20.8014 13.3602 20.8014 16.0002C20.8014 18.6402 18.6414 20.8002 16.0014 20.8002Z" fill="#637798"/>
</svg>
