<svg width="32" height="32" viewBox="0 0 32 32" fill="none" xmlns="http://www.w3.org/2000/svg">
<path d="M17.3337 21.3333H14.667C13.9337 21.3333 13.3337 20.7333 13.3337 20H4.01366V25.3333C4.01366 26.8 5.21366 28 6.68033 28H25.3337C26.8003 28 28.0003 26.8 28.0003 25.3333V20H18.667C18.667 20.7333 18.067 21.3333 17.3337 21.3333ZM26.667 9.33333H21.3337C21.3337 6.38667 18.947 4 16.0003 4C13.0537 4 10.667 6.38667 10.667 9.33333H5.33366C3.86699 9.33333 2.66699 10.5333 2.66699 12V16C2.66699 17.48 3.85366 18.6667 5.33366 18.6667H13.3337V17.3333C13.3337 16.6 13.9337 16 14.667 16H17.3337C18.067 16 18.667 16.6 18.667 17.3333V18.6667H26.667C28.1337 18.6667 29.3337 17.4667 29.3337 16V12C29.3337 10.5333 28.1337 9.33333 26.667 9.33333ZM13.3337 9.33333C13.3337 7.86667 14.5337 6.66667 16.0003 6.66667C17.467 6.66667 18.667 7.86667 18.667 9.33333H13.3203H13.3337Z" fill="#637798"/>
</svg>
