<svg width="24" height="23" viewBox="0 0 24 23" fill="none" xmlns="http://www.w3.org/2000/svg">
<path d="M2.99976 1.38C2.99976 0.617763 3.64438 0 4.43976 0H14.9998L20.9998 4.82999V21.62C20.9998 22.3822 20.3552 23 19.5598 23H4.43976C3.64438 23 2.99976 22.3822 2.99976 21.62V1.38Z" fill="#EF5350"/>
<path d="M15.0002 0V3.44999C15.0002 4.21223 15.6449 4.82999 16.4402 4.82999H21.0003" fill="#D32F2F"/>
<path d="M7.51538 14.5833H6.95289V16.2368H5.70752V11.2548H7.35038C8.76827 11.2548 9.57824 11.7867 9.57824 12.8795C9.57789 14.0518 8.74541 14.5833 7.51538 14.5833ZM7.36542 12.1029H6.95293V13.7204H7.41044C7.97293 13.7204 8.29542 13.4613 8.29542 12.8791C8.29542 12.3548 7.98793 12.1029 7.36542 12.1029Z" fill="white"/>
<path d="M11.5432 16.2368H10.1328V11.2548H11.4532C12.7889 11.2548 14.0636 11.6645 14.0636 13.7211C14.0636 15.7473 12.8407 16.2368 11.5432 16.2368ZM11.6328 12.1172H11.3778V15.3742H11.6328C12.3154 15.3742 12.7728 15.022 12.7728 13.7204C12.7736 12.3911 12.2857 12.1172 11.6328 12.1172Z" fill="white"/>
<path d="M16.2304 12.1029V13.4117H18.0458V14.267H16.2304V16.2368H14.9775V11.2548H18.4058L18.2783 12.1029H16.2304Z" fill="white"/>
</svg>
