<svg width="24" height="24" viewBox="0 0 24 24" fill="none" xmlns="http://www.w3.org/2000/svg">
<path d="M3.00049 1.44C3.00049 0.644623 3.64511 0 4.44049 0H15.0005L21.0005 5.03999V22.56C21.0005 23.3554 20.3559 24 19.5605 24H4.44049C3.64511 24 3.00049 23.3554 3.00049 22.56V1.44Z" fill="#0078D2"/>
<path d="M15.0002 0V3.59998C15.0002 4.39537 15.6449 5.03999 16.4402 5.03999H21.0003" fill="#0052B4"/>
<path d="M7.04318 16.9447H5.63281V11.7461H6.95318C8.28855 11.7461 9.56394 12.1736 9.56394 14.3197C9.56394 16.434 8.34104 16.9447 7.04318 16.9447ZM7.13318 12.6461H6.87818V16.0447H7.13318C7.8157 16.0447 8.27316 15.6772 8.27316 14.319C8.27355 12.9318 7.78607 12.6461 7.13318 12.6461Z" fill="white"/>
<path d="M11.9998 17.0711C10.6344 17.0711 9.91406 16.029 9.91406 14.3411C9.91406 12.6907 10.6344 11.6104 11.9998 11.6104C13.3652 11.6104 14.0852 12.6532 14.0852 14.3411C14.0852 15.9907 13.3652 17.0711 11.9998 17.0711ZM11.9998 12.5174C11.422 12.5174 11.1898 13.0653 11.1898 14.3407C11.1898 15.6153 11.4298 16.1632 11.9998 16.1632C12.5923 16.1632 12.8099 15.6007 12.8099 14.3407C12.8099 13.0653 12.577 12.5174 11.9998 12.5174Z" fill="white"/>
<path d="M17.9993 12.9077C17.7143 12.6752 17.414 12.5324 17.0168 12.5324C16.3047 12.5324 15.794 13.0652 15.794 14.3331C15.794 15.5785 16.2743 16.1106 16.9872 16.1106C17.4968 16.1106 17.8201 15.9002 18.1122 15.6756L18.6747 16.3956C18.2922 16.7631 17.7293 17.0709 16.9043 17.0709C15.4719 17.0709 14.4961 16.118 14.4961 14.3326C14.4961 12.5919 15.539 11.6094 16.9269 11.6094C17.6769 11.6094 18.1715 11.8347 18.6065 12.1873L17.9993 12.9077Z" fill="white"/>
</svg>
